<?xml version="1.0" encoding="utf-8"?>
<!-- Generator: Adobe Illustrator 18.1.1, SVG Export Plug-In . SVG Version: 6.00 Build 0)  -->
<svg version="1.1" xmlns="http://www.w3.org/2000/svg" xmlns:xlink="http://www.w3.org/1999/xlink" x="0px" y="0px"
	 viewBox="0 0 512 512" enable-background="new 0 0 512 512" xml:space="preserve">
<g id="pinterest">
	<path d="M295.224,370.029c-31.536,0-61.192-17.167-71.337-36.658c0,0-16.965,67.756-20.546,80.839
		c-12.643,46.207-49.844,92.451-52.727,96.238c-2.018,2.635-6.469,1.809-6.936-1.68c-0.805-5.885-10.286-64.198,0.875-111.76
		c5.602-23.884,37.562-160.254,37.562-160.254s-9.315-18.776-9.315-46.533c0-43.584,25.089-76.118,56.322-76.118
		c26.556,0,39.39,20.075,39.39,44.146c0,26.894-17.005,67.098-25.788,104.357c-7.326,31.21,15.542,56.649,46.097,56.649
		c55.32,0,92.591-71.567,92.591-156.367c0-64.44-43.089-112.697-121.514-112.697c-88.572,0-143.79,66.53-143.79,140.855
		c0,25.614,7.516,43.699,19.278,57.674c5.397,6.426,6.153,9.014,4.199,16.389c-1.426,5.416-4.619,18.44-5.969,23.604
		c-1.938,7.453-7.932,10.112-14.618,7.354c-40.789-16.768-59.805-61.772-59.805-112.354C59.196,100.177,129.159,0,267.914,0
		c111.514,0,184.89,81.239,184.89,168.477C452.798,283.842,389.108,370.029,295.224,370.029z"/>
</g>
</svg>
