<?xml version="1.0" encoding="utf-8"?>
<!-- Generator: Adobe Illustrator 18.1.1, SVG Export Plug-In . SVG Version: 6.00 Build 0)  -->
<svg version="1.1" xmlns="http://www.w3.org/2000/svg" xmlns:xlink="http://www.w3.org/1999/xlink" x="0px" y="0px"
	 viewBox="0 0 512 512" enable-background="new 0 0 512 512" xml:space="preserve">
<g id="rss">
	<path d="M70.9,512c-38.001,0-68.803-31.014-68.803-69.287c0-38.261,30.804-69.275,68.803-69.275
		c37.995,0,68.797,31.014,68.797,69.275C139.697,480.986,108.897,512,70.9,512z M235.317,512
		C234,383.081,130.119,278.472,2.098,277.146V174.509C186.614,175.837,335.923,326.192,337.243,512H235.317z M407.972,512
		c-0.309-109.22-42.675-211.857-119.404-289.121C211.992,145.766,110.319,103.122,2.096,102.653V0
		c280.232,0.988,507.172,229.725,507.808,512H407.972z"/>
</g>
</svg>
