<?xml version="1.0" encoding="utf-8"?>
<!-- Generator: Adobe Illustrator 18.1.1, SVG Export Plug-In . SVG Version: 6.00 Build 0)  -->
<svg version="1.1" xmlns="http://www.w3.org/2000/svg" xmlns:xlink="http://www.w3.org/1999/xlink" x="0px" y="0px"
	 viewBox="0 0 512 512" enable-background="new 0 0 512 512" xml:space="preserve">
<g id="twitter">
	<path d="M459.588,150.853c6.642,148.774-103.544,314.65-298.567,314.65c-59.323,0-114.536-17.513-161.021-47.522
		c55.727,6.615,111.35-8.954,155.516-43.81c-45.967-0.849-84.762-31.431-98.126-73.453c16.46,3.166,32.652,2.236,47.435-1.814
		c-50.513-10.224-85.389-56.048-84.248-105.054c14.157,7.925,30.356,12.681,47.578,13.234
		C21.369,175.602,8.128,113.391,35.644,65.861c51.81,63.994,129.213,106.108,216.509,110.518
		C236.832,110.215,286.679,46.497,354.48,46.497c30.213,0,57.511,12.841,76.671,33.404c23.93-4.741,46.408-13.549,66.704-25.673
		c-7.843,24.708-24.499,45.433-46.184,58.528c21.246-2.555,41.491-8.244,60.329-16.66
		C497.923,117.313,480.116,135.94,459.588,150.853z"/>
</g>
</svg>
