<?xml version="1.0" encoding="utf-8"?>
<!-- Generator: Adobe Illustrator 18.1.1, SVG Export Plug-In . SVG Version: 6.00 Build 0)  -->
<svg version="1.1" xmlns="http://www.w3.org/2000/svg" xmlns:xlink="http://www.w3.org/1999/xlink" x="0px" y="0px"
	 viewBox="0 0 512 512" enable-background="new 0 0 512 512" xml:space="preserve">
<g id="youtube">
	<path d="M99.26,0.5h30.735l21.041,78.974L170.591,0.5h31.003l-35.513,117.441v80.138h-30.516v-80.138L99.26,0.5z M200.213,161.727
		c0,25.685,13.42,39.058,39.7,39.058c21.794,0,38.955-14.576,38.955-39.058V90.286c0-22.812-16.992-39.158-38.955-39.158
		c-23.864,0-39.7,15.771-39.7,39.158V161.727z M228.096,92.689c0-7.974,3.673-13.898,11.285-13.898
		c8.311,0,11.866,5.745,11.866,13.898v67.798c0,7.937-4.045,13.798-11.336,13.798c-7.482,0-11.815-6.125-11.815-13.798V92.689z
		 M352.115,52.327v110.631c-3.303,4.138-10.649,10.921-15.933,10.921c-5.798,0-7.218-3.963-7.218-9.824V52.327h-27.097v121.823
		c0,14.399,4.404,26.034,18.928,26.034c8.199,0,19.578-4.266,31.318-18.196v16.09h27.095V52.327H352.115z M312.256,351.112
		c1.839,2.428,2.759,5.985,2.759,10.664v71.668c0,4.429-0.748,7.62-2.233,9.568c-2.846,3.724-9.004,3.555-13.203,1.43
		c-1.975-0.997-4.012-2.623-6.109-4.88V353.06c1.751-1.904,3.523-3.317,5.321-4.224
		C303.307,346.545,309.136,346.986,312.256,351.112z M399.126,347.967c-9.562,0-11.527,6.73-11.527,16.27v14.05h22.796v-14.05
		C410.395,354.856,408.406,347.967,399.126,347.967z M477.824,450.36c0,34.317-27.816,62.14-62.13,62.14H96.305
		c-34.313,0-62.13-27.822-62.13-62.14V293.388c0-34.321,27.816-62.138,62.13-62.138h319.389c34.311,0,62.13,27.816,62.13,62.138
		V450.36L477.824,450.36z M138.865,305.126h30.065v-27.314H79.738v27.314h30.063v160.852h29.063V305.126L138.865,305.126z
		 M242.237,327.174h-25.806v105.361c-3.149,3.947-10.145,10.399-15.174,10.399c-5.518,0-6.871-3.77-6.871-9.355V327.174h-25.807
		v116.019c0,28.163,19.096,28.336,33.006,20.364c5.144-2.952,10.089-7.253,14.848-12.898v15.318h25.806V327.174z M341.573,360.215
		c0-18.83-6.259-34.794-25.16-34.794c-9.213,0-17.122,5.875-22.944,12.969v-60.578h-26.058v188.166h26.058v-10.664
		c7.194,8.969,15.062,12.419,24.51,12.419c17.171,0,23.594-13.337,23.594-30.514V360.215z M436.953,364.491
		c0-25.087-11.962-40.824-36.718-40.824c-23.281,0-39.196,16.728-39.196,40.824v62.305c0,24.986,12.602,42.942,37.242,42.942
		c27.192,0,38.672-16.193,38.672-42.942v-10.424h-26.558v9.646c0,12.084-0.634,19.419-11.527,19.419
		c-10.391,0-11.269-9.006-11.269-19.419v-26.186h49.356v-35.341H436.953z"/>
</g>
</svg>
